<mxfile host="app.diagrams.net" modified="2024-05-06T05:14:38.821Z" agent="Mozilla/5.0 (Windows NT 10.0; Win64; x64) AppleWebKit/537.36 (KHTML, like Gecko) Chrome/124.0.0.0 Safari/537.36" etag="LDI0KhJB3lyD6qMm_45_" version="24.3.1" type="device">
  <diagram id="R2lEEEUBdFMjLlhIrx00" name="Page-1">
    <mxGraphModel dx="819" dy="441" grid="0" gridSize="10" guides="1" tooltips="1" connect="1" arrows="1" fold="1" page="1" pageScale="1" pageWidth="850" pageHeight="1100" math="0" shadow="0" extFonts="Permanent Marker^https://fonts.googleapis.com/css?family=Permanent+Marker">
      <root>
        <mxCell id="0" />
        <mxCell id="1" parent="0" />
        <mxCell id="jk0zFr7XuWTX3UvPdQ-t-16" style="edgeStyle=orthogonalEdgeStyle;rounded=0;orthogonalLoop=1;jettySize=auto;html=1;entryX=0;entryY=0.5;entryDx=0;entryDy=0;startArrow=oval;startFill=1;endArrow=oval;endFill=1;exitX=1;exitY=0.25;exitDx=0;exitDy=0;" edge="1" parent="1" source="jk0zFr7XuWTX3UvPdQ-t-5" target="jk0zFr7XuWTX3UvPdQ-t-8">
          <mxGeometry relative="1" as="geometry">
            <mxPoint x="300" y="350" as="sourcePoint" />
          </mxGeometry>
        </mxCell>
        <mxCell id="jk0zFr7XuWTX3UvPdQ-t-21" style="edgeStyle=orthogonalEdgeStyle;rounded=0;orthogonalLoop=1;jettySize=auto;html=1;entryX=0;entryY=0.5;entryDx=0;entryDy=0;startArrow=oval;startFill=1;endArrow=none;endFill=0;" edge="1" parent="1" source="jk0zFr7XuWTX3UvPdQ-t-5" target="jk0zFr7XuWTX3UvPdQ-t-18">
          <mxGeometry relative="1" as="geometry" />
        </mxCell>
        <mxCell id="jk0zFr7XuWTX3UvPdQ-t-22" style="edgeStyle=orthogonalEdgeStyle;rounded=0;orthogonalLoop=1;jettySize=auto;html=1;exitX=1;exitY=0.75;exitDx=0;exitDy=0;entryX=0;entryY=0.5;entryDx=0;entryDy=0;startArrow=oval;startFill=1;endArrow=none;endFill=0;" edge="1" parent="1" source="jk0zFr7XuWTX3UvPdQ-t-5" target="jk0zFr7XuWTX3UvPdQ-t-20">
          <mxGeometry relative="1" as="geometry" />
        </mxCell>
        <mxCell id="jk0zFr7XuWTX3UvPdQ-t-30" style="edgeStyle=orthogonalEdgeStyle;rounded=0;orthogonalLoop=1;jettySize=auto;html=1;exitX=0.5;exitY=1;exitDx=0;exitDy=0;entryX=0.5;entryY=0;entryDx=0;entryDy=0;endArrow=oval;endFill=1;" edge="1" parent="1" source="jk0zFr7XuWTX3UvPdQ-t-5" target="jk0zFr7XuWTX3UvPdQ-t-29">
          <mxGeometry relative="1" as="geometry" />
        </mxCell>
        <mxCell id="jk0zFr7XuWTX3UvPdQ-t-5" value="Кинотеатр" style="whiteSpace=wrap;html=1;align=center;fillColor=none;" vertex="1" parent="1">
          <mxGeometry x="180" y="320" width="100" height="40" as="geometry" />
        </mxCell>
        <mxCell id="jk0zFr7XuWTX3UvPdQ-t-8" value="Банк" style="whiteSpace=wrap;html=1;align=center;fillColor=none;" vertex="1" parent="1">
          <mxGeometry x="390" y="260" width="100" height="40" as="geometry" />
        </mxCell>
        <mxCell id="jk0zFr7XuWTX3UvPdQ-t-18" value="Город" style="whiteSpace=wrap;html=1;align=center;fillColor=none;" vertex="1" parent="1">
          <mxGeometry x="390" y="320" width="100" height="40" as="geometry" />
        </mxCell>
        <mxCell id="jk0zFr7XuWTX3UvPdQ-t-20" value="Улица" style="whiteSpace=wrap;html=1;align=center;fillColor=none;" vertex="1" parent="1">
          <mxGeometry x="390" y="380" width="100" height="40" as="geometry" />
        </mxCell>
        <mxCell id="jk0zFr7XuWTX3UvPdQ-t-24" style="edgeStyle=orthogonalEdgeStyle;rounded=0;orthogonalLoop=1;jettySize=auto;html=1;exitX=0;exitY=0.25;exitDx=0;exitDy=0;entryX=1;entryY=0.5;entryDx=0;entryDy=0;startArrow=oval;startFill=1;endArrow=oval;endFill=1;" edge="1" parent="1" source="jk0zFr7XuWTX3UvPdQ-t-23" target="jk0zFr7XuWTX3UvPdQ-t-8">
          <mxGeometry relative="1" as="geometry" />
        </mxCell>
        <mxCell id="jk0zFr7XuWTX3UvPdQ-t-25" style="edgeStyle=orthogonalEdgeStyle;rounded=0;orthogonalLoop=1;jettySize=auto;html=1;exitX=0;exitY=0.5;exitDx=0;exitDy=0;entryX=1;entryY=0.5;entryDx=0;entryDy=0;startArrow=oval;startFill=1;endArrow=none;endFill=0;" edge="1" parent="1" source="jk0zFr7XuWTX3UvPdQ-t-23" target="jk0zFr7XuWTX3UvPdQ-t-18">
          <mxGeometry relative="1" as="geometry" />
        </mxCell>
        <mxCell id="jk0zFr7XuWTX3UvPdQ-t-26" style="edgeStyle=orthogonalEdgeStyle;rounded=0;orthogonalLoop=1;jettySize=auto;html=1;exitX=0;exitY=0.75;exitDx=0;exitDy=0;entryX=1;entryY=0.5;entryDx=0;entryDy=0;endArrow=none;endFill=0;startArrow=oval;startFill=1;" edge="1" parent="1" source="jk0zFr7XuWTX3UvPdQ-t-23" target="jk0zFr7XuWTX3UvPdQ-t-20">
          <mxGeometry relative="1" as="geometry" />
        </mxCell>
        <mxCell id="jk0zFr7XuWTX3UvPdQ-t-23" value="Поставщик" style="whiteSpace=wrap;html=1;align=center;fillColor=none;" vertex="1" parent="1">
          <mxGeometry x="600" y="320" width="100" height="40" as="geometry" />
        </mxCell>
        <mxCell id="jk0zFr7XuWTX3UvPdQ-t-28" style="edgeStyle=orthogonalEdgeStyle;rounded=0;orthogonalLoop=1;jettySize=auto;html=1;exitX=0.75;exitY=0;exitDx=0;exitDy=0;entryX=0.5;entryY=1;entryDx=0;entryDy=0;endArrow=none;endFill=0;startArrow=oval;startFill=1;" edge="1" parent="1" source="jk0zFr7XuWTX3UvPdQ-t-27" target="jk0zFr7XuWTX3UvPdQ-t-23">
          <mxGeometry relative="1" as="geometry">
            <Array as="points">
              <mxPoint x="465" y="440" />
              <mxPoint x="650" y="440" />
            </Array>
          </mxGeometry>
        </mxCell>
        <mxCell id="jk0zFr7XuWTX3UvPdQ-t-27" value="Фильм" style="whiteSpace=wrap;html=1;align=center;fillColor=none;" vertex="1" parent="1">
          <mxGeometry x="390" y="480" width="100" height="40" as="geometry" />
        </mxCell>
        <mxCell id="jk0zFr7XuWTX3UvPdQ-t-31" style="edgeStyle=orthogonalEdgeStyle;rounded=0;orthogonalLoop=1;jettySize=auto;html=1;exitX=0.5;exitY=1;exitDx=0;exitDy=0;entryX=0;entryY=0.5;entryDx=0;entryDy=0;endArrow=none;endFill=0;" edge="1" parent="1" source="jk0zFr7XuWTX3UvPdQ-t-29" target="jk0zFr7XuWTX3UvPdQ-t-27">
          <mxGeometry relative="1" as="geometry" />
        </mxCell>
        <mxCell id="jk0zFr7XuWTX3UvPdQ-t-29" value="Договор аренды" style="whiteSpace=wrap;html=1;align=center;fillColor=none;" vertex="1" parent="1">
          <mxGeometry x="180" y="440" width="100" height="40" as="geometry" />
        </mxCell>
        <mxCell id="jk0zFr7XuWTX3UvPdQ-t-33" style="edgeStyle=orthogonalEdgeStyle;rounded=0;orthogonalLoop=1;jettySize=auto;html=1;exitX=0.5;exitY=1;exitDx=0;exitDy=0;entryX=0;entryY=0.5;entryDx=0;entryDy=0;startArrow=oval;startFill=1;endArrow=none;endFill=0;" edge="1" parent="1" source="jk0zFr7XuWTX3UvPdQ-t-32" target="jk0zFr7XuWTX3UvPdQ-t-29">
          <mxGeometry relative="1" as="geometry" />
        </mxCell>
        <mxCell id="jk0zFr7XuWTX3UvPdQ-t-32" value="Платеж" style="rounded=1;arcSize=10;whiteSpace=wrap;html=1;align=center;fillColor=none;" vertex="1" parent="1">
          <mxGeometry x="80" y="380" width="100" height="40" as="geometry" />
        </mxCell>
        <mxCell id="jk0zFr7XuWTX3UvPdQ-t-35" style="edgeStyle=orthogonalEdgeStyle;rounded=0;orthogonalLoop=1;jettySize=auto;html=1;exitX=0;exitY=0.5;exitDx=0;exitDy=0;entryX=1;entryY=0.25;entryDx=0;entryDy=0;endArrow=oval;endFill=1;" edge="1" parent="1" source="jk0zFr7XuWTX3UvPdQ-t-34" target="jk0zFr7XuWTX3UvPdQ-t-27">
          <mxGeometry relative="1" as="geometry" />
        </mxCell>
        <mxCell id="jk0zFr7XuWTX3UvPdQ-t-34" value="Компания-производитель" style="whiteSpace=wrap;html=1;align=center;fillColor=none;" vertex="1" parent="1">
          <mxGeometry x="600" y="450" width="100" height="40" as="geometry" />
        </mxCell>
        <mxCell id="jk0zFr7XuWTX3UvPdQ-t-37" style="edgeStyle=orthogonalEdgeStyle;rounded=0;orthogonalLoop=1;jettySize=auto;html=1;exitX=0;exitY=0.5;exitDx=0;exitDy=0;entryX=1;entryY=0.75;entryDx=0;entryDy=0;startArrow=oval;startFill=1;endArrow=oval;endFill=1;" edge="1" parent="1" source="jk0zFr7XuWTX3UvPdQ-t-36" target="jk0zFr7XuWTX3UvPdQ-t-27">
          <mxGeometry relative="1" as="geometry" />
        </mxCell>
        <mxCell id="jk0zFr7XuWTX3UvPdQ-t-36" value="Категория" style="whiteSpace=wrap;html=1;align=center;fillColor=none;" vertex="1" parent="1">
          <mxGeometry x="600" y="510" width="100" height="40" as="geometry" />
        </mxCell>
        <mxCell id="jk0zFr7XuWTX3UvPdQ-t-38" value="Режиссёр" style="whiteSpace=wrap;html=1;align=center;fillColor=none;" vertex="1" parent="1">
          <mxGeometry x="325" y="570" width="100" height="40" as="geometry" />
        </mxCell>
        <mxCell id="jk0zFr7XuWTX3UvPdQ-t-39" style="edgeStyle=orthogonalEdgeStyle;rounded=0;orthogonalLoop=1;jettySize=auto;html=1;exitX=0.5;exitY=0;exitDx=0;exitDy=0;entryX=0.31;entryY=1.046;entryDx=0;entryDy=0;entryPerimeter=0;startArrow=oval;startFill=1;endArrow=oval;endFill=1;" edge="1" parent="1" source="jk0zFr7XuWTX3UvPdQ-t-38" target="jk0zFr7XuWTX3UvPdQ-t-27">
          <mxGeometry relative="1" as="geometry" />
        </mxCell>
        <mxCell id="jk0zFr7XuWTX3UvPdQ-t-40" value="Сценарист" style="whiteSpace=wrap;html=1;align=center;fillColor=none;" vertex="1" parent="1">
          <mxGeometry x="450" y="570" width="100" height="40" as="geometry" />
        </mxCell>
        <mxCell id="jk0zFr7XuWTX3UvPdQ-t-41" style="edgeStyle=orthogonalEdgeStyle;rounded=0;orthogonalLoop=1;jettySize=auto;html=1;exitX=0.5;exitY=0;exitDx=0;exitDy=0;entryX=0.687;entryY=0.989;entryDx=0;entryDy=0;entryPerimeter=0;startArrow=oval;startFill=1;endArrow=oval;endFill=1;" edge="1" parent="1" source="jk0zFr7XuWTX3UvPdQ-t-40" target="jk0zFr7XuWTX3UvPdQ-t-27">
          <mxGeometry relative="1" as="geometry" />
        </mxCell>
        <mxCell id="jk0zFr7XuWTX3UvPdQ-t-43" style="edgeStyle=orthogonalEdgeStyle;rounded=0;orthogonalLoop=1;jettySize=auto;html=1;exitX=0.25;exitY=0;exitDx=0;exitDy=0;entryX=0.5;entryY=1;entryDx=0;entryDy=0;endArrow=none;endFill=0;" edge="1" parent="1" source="jk0zFr7XuWTX3UvPdQ-t-42" target="jk0zFr7XuWTX3UvPdQ-t-38">
          <mxGeometry relative="1" as="geometry" />
        </mxCell>
        <mxCell id="jk0zFr7XuWTX3UvPdQ-t-44" style="edgeStyle=orthogonalEdgeStyle;rounded=0;orthogonalLoop=1;jettySize=auto;html=1;exitX=0.75;exitY=0;exitDx=0;exitDy=0;entryX=0.5;entryY=1;entryDx=0;entryDy=0;endArrow=none;endFill=0;" edge="1" parent="1" source="jk0zFr7XuWTX3UvPdQ-t-42" target="jk0zFr7XuWTX3UvPdQ-t-40">
          <mxGeometry relative="1" as="geometry" />
        </mxCell>
        <mxCell id="jk0zFr7XuWTX3UvPdQ-t-42" value="Персона" style="whiteSpace=wrap;html=1;align=center;" vertex="1" parent="1">
          <mxGeometry x="390" y="650" width="100" height="40" as="geometry" />
        </mxCell>
      </root>
    </mxGraphModel>
  </diagram>
</mxfile>
